<svg xmlns="http://www.w3.org/2000/svg"  viewBox="0 0 50 50" width="512px" height="512px"><path d="M46.967,7.496c-0.001-1.198-0.472-2.327-1.324-3.178C44.79,3.468,43.663,3,42.467,3c-0.002,0-0.003,0-0.005,0L7.496,3.034	C6.298,3.035,5.169,3.505,4.317,4.358C3.467,5.21,2.999,6.34,3,7.538l0.033,34.966c0.001,1.198,0.472,2.327,1.324,3.178	C5.21,46.532,6.337,47,7.533,47c0.002,0,0.003,0,0.005,0l34.966-0.034c1.198-0.001,2.327-0.472,3.179-1.324	c0.851-0.853,1.318-1.982,1.317-3.18L46.967,7.496z M41.097,22.215c0,0.162-0.131,0.293-0.293,0.293h-0.258	c-1.295,0-2.344,1.049-2.344,2.343v6.519c0,1.583-1.322,2.868-2.865,2.868c-1.011,0-1.859-0.467-2.41-1.253l-6.622-9.455	c-0.448-0.639-1.18-1.02-1.96-1.02H24.34c-1.295,0-2.344,1.049-2.344,2.343v6.517c0,1.799-1.688,3.211-3.522,2.794	c-0.733-0.166-1.368-0.623-1.799-1.238L9.383,22.512C9.22,22.277,9.132,22,9.132,21.714V16.06c0-0.292,0.376-0.411,0.543-0.171	l7.409,10.583c0.448,0.639,1.202,1.02,1.962,1.02c1.282,0,2.344-1.049,2.344-2.343v-6.52c0-1.584,1.358-2.868,2.868-2.868	c0.968,0,1.862,0.468,2.411,1.253l6.621,9.456c0.448,0.639,1.204,1.02,1.96,1.02c1.273,0,2.344-1.049,2.344-2.343v-6.483	c0-1.603,1.301-2.901,2.904-2.899h0.305h0.001c0.162,0,0.293,0.131,0.293,0.293V22.215z"/></svg>