<svg xmlns="http://www.w3.org/2000/svg"  viewBox="0 0 50 50" width="512px" height="512px"><path d="M 42.462891 3 L 7.4960938 3.0332031 C 5.0252299 3.0344867 2.9974331 5.0664346 3 7.5371094 L 3.0332031 42.503906 C 3.03577 44.974486 5.0664346 47.002567 7.5371094 47 L 42.503906 46.966797 C 44.97477 46.96551 47.002567 44.933565 47 42.462891 L 46.966797 7.4960938 C 46.96423 5.0255138 44.933565 2.9974331 42.462891 3 z M 42.464844 5 C 43.844169 4.99857 44.965364 6.1186268 44.966797 7.4980469 L 45 42.464844 C 45.0014 43.844169 43.881089 44.96608 42.501953 44.966797 L 7.5351562 45 C 6.155831 45.001433 5.0346363 43.881373 5.0332031 42.501953 L 5 7.5351562 C 4.9985669 6.155831 6.1189107 5.0339196 7.4980469 5.0332031 L 42.464844 5 z M 24.257812 15.761719 C 22.748812 15.761719 21.388672 17.045859 21.388672 18.630859 L 21.388672 25.150391 C 21.388672 26.445391 20.327922 27.492187 19.044922 27.492188 C 18.285922 27.492188 17.531031 27.111656 17.082031 26.472656 L 9.6757812 15.888672 C 9.5087813 15.648672 9.1328125 15.768547 9.1328125 16.060547 L 9.1328125 21.714844 C 9.1328125 22.000844 9.2207656 22.276719 9.3847656 22.511719 L 16.675781 32.925781 C 17.106781 33.540781 17.741609 33.996109 18.474609 34.162109 C 20.308609 34.579109 21.996094 33.168141 21.996094 31.369141 L 21.996094 24.851562 C 21.996094 23.556562 23.046797 22.509766 24.341797 22.509766 L 24.345703 22.509766 C 25.125703 22.509766 25.856688 22.890297 26.304688 23.529297 L 32.927734 32.984375 C 33.478734 33.770375 34.325891 34.236328 35.337891 34.236328 C 36.880891 34.236328 38.201172 32.952141 38.201172 31.369141 L 38.201172 24.849609 C 38.201172 23.554609 39.251875 22.507812 40.546875 22.507812 L 40.804688 22.507812 C 40.966687 22.507812 41.097656 22.376844 41.097656 22.214844 L 41.097656 16.058594 C 41.097656 15.896594 40.966688 15.765625 40.804688 15.765625 L 40.802734 15.765625 L 40.496094 15.765625 C 38.893094 15.762625 37.59375 17.061062 37.59375 18.664062 L 37.59375 25.148438 C 37.59375 26.443437 36.522047 27.490234 35.248047 27.490234 C 34.491047 27.490234 33.737062 27.109703 33.289062 26.470703 L 26.667969 17.015625 C 26.118969 16.230625 25.225812 15.761719 24.257812 15.761719 z"/></svg>